<svg xmlns="http://www.w3.org/2000/svg" viewBox="0 0 8 16" shape-rendering="crispEdges">
<rect fill="#300A24" x="0" y="0" width="1" height="1" />
<rect fill="#300A24" x="1" y="0" width="1" height="1" />
<rect fill="#300A24" x="2" y="0" width="1" height="1" />
<rect fill="#300A24" x="3" y="0" width="1" height="1" />
<rect fill="#300A24" x="4" y="0" width="1" height="1" />
<rect fill="#300A24" x="5" y="0" width="1" height="1" />
<rect fill="#300A24" x="6" y="0" width="1" height="1" />
<rect fill="#300A24" x="7" y="0" width="1" height="1" />
<rect fill="#300A24" x="0" y="1" width="1" height="1" />
<rect fill="#300A24" x="1" y="1" width="1" height="1" />
<rect fill="#300A24" x="2" y="1" width="1" height="1" />
<rect fill="#300A24" x="3" y="1" width="1" height="1" />
<rect fill="#300A24" x="4" y="1" width="1" height="1" />
<rect fill="#300A24" x="5" y="1" width="1" height="1" />
<rect fill="#300A24" x="6" y="1" width="1" height="1" />
<rect fill="#300A24" x="7" y="1" width="1" height="1" />
<rect fill="#300A24" x="0" y="2" width="1" height="1" />
<rect fill="#300A24" x="1" y="2" width="1" height="1" />
<rect fill="#300A24" x="2" y="2" width="1" height="1" />
<rect fill="#300A24" x="3" y="2" width="1" height="1" />
<rect fill="#300A24" x="4" y="2" width="1" height="1" />
<rect fill="#300A24" x="5" y="2" width="1" height="1" />
<rect fill="#300A24" x="6" y="2" width="1" height="1" />
<rect fill="#300A24" x="7" y="2" width="1" height="1" />
<rect fill="#F2F2F2" x="0" y="3" width="1" height="1" />
<rect fill="#F2F2F2" x="1" y="3" width="1" height="1" />
<rect fill="#F2F2F2" x="2" y="3" width="1" height="1" />
<rect fill="#F2F2F2" x="3" y="3" width="1" height="1" />
<rect fill="#F2F2F2" x="4" y="3" width="1" height="1" />
<rect fill="#F2F2F2" x="5" y="3" width="1" height="1" />
<rect fill="#F2F2F2" x="6" y="3" width="1" height="1" />
<rect fill="#300A24" x="7" y="3" width="1" height="1" />
<rect fill="#F2F2F2" x="0" y="4" width="1" height="1" />
<rect fill="#F2F2F2" x="1" y="4" width="1" height="1" />
<rect fill="#300A24" x="2" y="4" width="1" height="1" />
<rect fill="#300A24" x="3" y="4" width="1" height="1" />
<rect fill="#300A24" x="4" y="4" width="1" height="1" />
<rect fill="#F2F2F2" x="5" y="4" width="1" height="1" />
<rect fill="#F2F2F2" x="6" y="4" width="1" height="1" />
<rect fill="#300A24" x="7" y="4" width="1" height="1" />
<rect fill="#300A24" x="0" y="5" width="1" height="1" />
<rect fill="#300A24" x="1" y="5" width="1" height="1" />
<rect fill="#300A24" x="2" y="5" width="1" height="1" />
<rect fill="#300A24" x="3" y="5" width="1" height="1" />
<rect fill="#300A24" x="4" y="5" width="1" height="1" />
<rect fill="#F2F2F2" x="5" y="5" width="1" height="1" />
<rect fill="#F2F2F2" x="6" y="5" width="1" height="1" />
<rect fill="#300A24" x="7" y="5" width="1" height="1" />
<rect fill="#300A24" x="0" y="6" width="1" height="1" />
<rect fill="#300A24" x="1" y="6" width="1" height="1" />
<rect fill="#300A24" x="2" y="6" width="1" height="1" />
<rect fill="#300A24" x="3" y="6" width="1" height="1" />
<rect fill="#300A24" x="4" y="6" width="1" height="1" />
<rect fill="#F2F2F2" x="5" y="6" width="1" height="1" />
<rect fill="#F2F2F2" x="6" y="6" width="1" height="1" />
<rect fill="#300A24" x="7" y="6" width="1" height="1" />
<rect fill="#300A24" x="0" y="7" width="1" height="1" />
<rect fill="#300A24" x="1" y="7" width="1" height="1" />
<rect fill="#300A24" x="2" y="7" width="1" height="1" />
<rect fill="#300A24" x="3" y="7" width="1" height="1" />
<rect fill="#F2F2F2" x="4" y="7" width="1" height="1" />
<rect fill="#F2F2F2" x="5" y="7" width="1" height="1" />
<rect fill="#300A24" x="6" y="7" width="1" height="1" />
<rect fill="#300A24" x="7" y="7" width="1" height="1" />
<rect fill="#300A24" x="0" y="8" width="1" height="1" />
<rect fill="#300A24" x="1" y="8" width="1" height="1" />
<rect fill="#300A24" x="2" y="8" width="1" height="1" />
<rect fill="#F2F2F2" x="3" y="8" width="1" height="1" />
<rect fill="#F2F2F2" x="4" y="8" width="1" height="1" />
<rect fill="#300A24" x="5" y="8" width="1" height="1" />
<rect fill="#300A24" x="6" y="8" width="1" height="1" />
<rect fill="#300A24" x="7" y="8" width="1" height="1" />
<rect fill="#300A24" x="0" y="9" width="1" height="1" />
<rect fill="#300A24" x="1" y="9" width="1" height="1" />
<rect fill="#F2F2F2" x="2" y="9" width="1" height="1" />
<rect fill="#F2F2F2" x="3" y="9" width="1" height="1" />
<rect fill="#300A24" x="4" y="9" width="1" height="1" />
<rect fill="#300A24" x="5" y="9" width="1" height="1" />
<rect fill="#300A24" x="6" y="9" width="1" height="1" />
<rect fill="#300A24" x="7" y="9" width="1" height="1" />
<rect fill="#300A24" x="0" y="10" width="1" height="1" />
<rect fill="#300A24" x="1" y="10" width="1" height="1" />
<rect fill="#F2F2F2" x="2" y="10" width="1" height="1" />
<rect fill="#F2F2F2" x="3" y="10" width="1" height="1" />
<rect fill="#300A24" x="4" y="10" width="1" height="1" />
<rect fill="#300A24" x="5" y="10" width="1" height="1" />
<rect fill="#300A24" x="6" y="10" width="1" height="1" />
<rect fill="#300A24" x="7" y="10" width="1" height="1" />
<rect fill="#300A24" x="0" y="11" width="1" height="1" />
<rect fill="#300A24" x="1" y="11" width="1" height="1" />
<rect fill="#F2F2F2" x="2" y="11" width="1" height="1" />
<rect fill="#F2F2F2" x="3" y="11" width="1" height="1" />
<rect fill="#300A24" x="4" y="11" width="1" height="1" />
<rect fill="#300A24" x="5" y="11" width="1" height="1" />
<rect fill="#300A24" x="6" y="11" width="1" height="1" />
<rect fill="#300A24" x="7" y="11" width="1" height="1" />
<rect fill="#300A24" x="0" y="12" width="1" height="1" />
<rect fill="#300A24" x="1" y="12" width="1" height="1" />
<rect fill="#F2F2F2" x="2" y="12" width="1" height="1" />
<rect fill="#F2F2F2" x="3" y="12" width="1" height="1" />
<rect fill="#300A24" x="4" y="12" width="1" height="1" />
<rect fill="#300A24" x="5" y="12" width="1" height="1" />
<rect fill="#300A24" x="6" y="12" width="1" height="1" />
<rect fill="#300A24" x="7" y="12" width="1" height="1" />
<rect fill="#300A24" x="0" y="13" width="1" height="1" />
<rect fill="#300A24" x="1" y="13" width="1" height="1" />
<rect fill="#300A24" x="2" y="13" width="1" height="1" />
<rect fill="#300A24" x="3" y="13" width="1" height="1" />
<rect fill="#300A24" x="4" y="13" width="1" height="1" />
<rect fill="#300A24" x="5" y="13" width="1" height="1" />
<rect fill="#300A24" x="6" y="13" width="1" height="1" />
<rect fill="#300A24" x="7" y="13" width="1" height="1" />
<rect fill="#300A24" x="0" y="14" width="1" height="1" />
<rect fill="#300A24" x="1" y="14" width="1" height="1" />
<rect fill="#300A24" x="2" y="14" width="1" height="1" />
<rect fill="#300A24" x="3" y="14" width="1" height="1" />
<rect fill="#300A24" x="4" y="14" width="1" height="1" />
<rect fill="#300A24" x="5" y="14" width="1" height="1" />
<rect fill="#300A24" x="6" y="14" width="1" height="1" />
<rect fill="#300A24" x="7" y="14" width="1" height="1" />
<rect fill="#300A24" x="0" y="15" width="1" height="1" />
<rect fill="#300A24" x="1" y="15" width="1" height="1" />
<rect fill="#300A24" x="2" y="15" width="1" height="1" />
<rect fill="#300A24" x="3" y="15" width="1" height="1" />
<rect fill="#300A24" x="4" y="15" width="1" height="1" />
<rect fill="#300A24" x="5" y="15" width="1" height="1" />
<rect fill="#300A24" x="6" y="15" width="1" height="1" />
<rect fill="#300A24" x="7" y="15" width="1" height="1" />
</svg>